<svg xmlns="http://www.w3.org/2000/svg" width="2148" height="3516" fill="none"><g clip-path="url(#a)"><path fill="#000" d="m2147 1206-8 81a598 598 0 0 1-20 82c-7 23-7 23-5 29l14 69a545 545 0 0 1-15 177 793 793 0 0 1-30 94 752 752 0 0 1-75 140l8 8a480 480 0 0 1 119 425 671 671 0 0 1-30 105l-19 38c-6 10-6 10-5 20a481 481 0 0 1-3 104 491 491 0 0 1-70 170 558 558 0 0 1-56 67 644 644 0 0 1-82 63 466 466 0 0 1-73 37l-23 34c-8 10-8 10-2 22l13 36q1 6 7 7a640 640 0 0 1 68 26 323 323 0 0 1 59 44 302 302 0 0 1 51 67 240 240 0 0 1-1 222 292 292 0 0 1-31 46 291 291 0 0 1-48 44 321 321 0 0 1-83 36 329 329 0 0 1-113 9 854 854 0 0 1-91-13 597 597 0 0 1-297-165 684 684 0 0 1-109-146q-2-1-12 2l-43 8-60 6a425 425 0 0 1-85-3 1048 1048 0 0 1-92-18l-22-5-21 36-51 73a889 889 0 0 1-99 100 826 826 0 0 1-99 66 664 664 0 0 1-147 55 653 653 0 0 1-73 10 459 459 0 0 1-82-3 329 329 0 0 1-61-19l-38-23-33-31a212 212 0 0 1-34-53l-12-46a203 203 0 0 1 32-146l29-33a224 224 0 0 1 36-25l64-33 35-24a332 332 0 0 0 38-38 279 279 0 0 0 29-49l8-31-10-2a364 364 0 0 1-60-18 432 432 0 0 1-92-58 569 569 0 0 1-86-94 442 442 0 0 1-54-131l-9-59-23-27a350 350 0 0 1-34-58 437 437 0 0 1-28-116 503 503 0 0 1 10-136 429 429 0 0 1 23-65q5-9 9-15c3-6 3-6 0-18a320 320 0 0 1-11-78 305 305 0 0 1 37-150 434 434 0 0 1 70-97 403 403 0 0 1 51-47l-3-12-8-36q2-3-7-9a401 401 0 0 1-116-135 721 721 0 0 1-40-89 583 583 0 0 1-20-90c-3-18-3-21-3-54a379 379 0 0 1 23-144 470 470 0 0 1 30-68c6-10 6-10 5-21a363 363 0 0 1 60-235 1003 1003 0 0 1 72-98 988 988 0 0 1 68-66 768 768 0 0 1 73-52l36-16c9-2 9-2 17-14l32-38 31-27-9-15a1107 1107 0 0 1-53-98l-44-76c-1-3-5-5-20-12l-48-29a303 303 0 0 1-74-88 252 252 0 0 1-16-47c-3-11-3-14-3-37a136 136 0 0 1 8-54l15-36a204 204 0 0 1 25-34 215 215 0 0 1 53-38 213 213 0 0 1 65-19 589 589 0 0 1 71-4 427 427 0 0 1 178 32 518 518 0 0 1 159 101 944 944 0 0 1 74 74l23-4a905 905 0 0 1 101-15 540 540 0 0 1 110 1 1344 1344 0 0 1 152 24 1335 1335 0 0 1 126 42 1459 1459 0 0 1 121 56q3 1 3-2l2-14a268 268 0 0 1 13-51 229 229 0 0 1 54-79l32-25a258 258 0 0 1 63-28l28-6 9-12a281 281 0 0 1 29-39 203 203 0 0 1 42-30 176 176 0 0 1 71-19h30a241 241 0 0 1 51 11l34 16 33 27a259 259 0 0 1 30 37 296 296 0 0 1 34 75 602 602 0 0 1 19 83l2 66a518 518 0 0 1-14 82 506 506 0 0 1-27 68 520 520 0 0 1-41 61 513 513 0 0 1-77 73l-4 12-20 62q-1 2 6 9l40 57c5 10 5 10 16 15a410 410 0 0 1 89 64 490 490 0 0 1 66 82l35 70a693 693 0 0 1 32 121 800 800 0 0 1 6 109m-39-48a836 836 0 0 0-12-90 665 665 0 0 0-38-109 577 577 0 0 0-48-76 431 431 0 0 0-89-78 395 395 0 0 0-99-43c-5-1-5-1-10 6l-17 27 17 6 55 20a359 359 0 0 1 70 45 441 441 0 0 1 57 63 601 601 0 0 1 42 77 517 517 0 0 1 32 152 544 544 0 0 1-24 188l-8-10a487 487 0 0 0-66-68 855 855 0 0 0-204-123 1045 1045 0 0 1-81-51l-15 35q0 2 8 9a482 482 0 0 0 64 38l124 67a1057 1057 0 0 1 80 56 494 494 0 0 1 56 57 303 303 0 0 1 26 44 223 223 0 0 1 20 67 420 420 0 0 1-11 157 640 640 0 0 1-107 228q-1 3-2-4a444 444 0 0 0-27-98 587 587 0 0 0-77-131l-72-96a1114 1114 0 0 1-57-92 575 575 0 0 1-28-71l-12-53-1 6a863 863 0 0 1-7 99q-1 4 1 8l7 14a419 419 0 0 0 40 74 1050 1050 0 0 0 77 105 1130 1130 0 0 1 77 119 541 541 0 0 1 31 80l8 43a289 289 0 0 1-8 82 320 320 0 0 1-54 105l-49 67-31 38-39 50-5-12a610 610 0 0 0-40-99 1726 1726 0 0 0-57-107 1129 1129 0 0 1-41-94 599 599 0 0 1-22-87 453 453 0 0 1-3-65 392 392 0 0 1 16-86l-8 11-34 47-4 9-3 11q-1 8-3 9l-10 7-24 25a1522 1522 0 0 0-65 91l-49 89a1346 1346 0 0 0-40 102l-12 51c-1 10-2 19-2 39-1 26-1 26-5 31l-9 10a451 451 0 0 0-60 128 880 880 0 0 0-36 173 1107 1107 0 0 0 5 163l9-7 19-13c9-6 9-7 9-10a367 367 0 0 1-3-73 600 600 0 0 1 19-166 556 556 0 0 1 58-151q2-2 3 5a300 300 0 0 0 18 47 479 479 0 0 0 62 102l72 90 41 51 13-14 12-14-6-10-51-64-71-93-28-48a454 454 0 0 1-27-75l-4-19a310 310 0 0 1 17-135l22-58a1070 1070 0 0 1 95-164l26-32q2 1 2 11a348 348 0 0 0 25 98 884 884 0 0 0 62 132l62 127a510 510 0 0 1 20 70 463 463 0 0 1 2 70 446 446 0 0 1-8 61l5-10 12-29a490 490 0 0 1 34-70 842 842 0 0 1 78-103l67-89 35-60 21-51 8-45q0-3 4-3l7-1 9-7a313 313 0 0 0 37-48 1084 1084 0 0 0 50-88 573 573 0 0 0 53-184l4-64a343 343 0 0 0-18-110c-4-10-4-10-2-13l4-6 14-43 16-76a675 675 0 0 0 4-103m-5 1031a638 638 0 0 0-28-132 541 541 0 0 0-31-67 363 363 0 0 0-59-79q-1-2-13 10c-10 12-10 12-14 27a408 408 0 0 1-31 79 838 838 0 0 1-96 141l5 5a2159 2159 0 0 1 137 110l44 49 38 60 10 17 6-15a537 537 0 0 0 33-139zm-59 299a293 293 0 0 0-18-67 329 329 0 0 0-96-125 1163 1163 0 0 0-123-97q-3 1-13 16l-39 51-24 41-11 37a179 179 0 0 0-3 43 264 264 0 0 0 21 78l47 111a1276 1276 0 0 1 31 98 582 582 0 0 1 12 107 374 374 0 0 1-10 80l12-5a564 564 0 0 0 63-41 609 609 0 0 0 64-63 527 527 0 0 0 41-61 441 441 0 0 0 47-174zm-44-2220-10-57a466 466 0 0 0-33-85l-14-21a197 197 0 0 0-36-35l-31-17-21-5c-12-3-15-3-33-3a117 117 0 0 0-47 7l-33 16a177 177 0 0 0-30 26l-14 22 9 5a172 172 0 0 1 53 40 427 427 0 0 1 49 64 806 806 0 0 1 51 117 709 709 0 0 1 25 125l2 49v32a339 339 0 0 0 59-66l25-45a326 326 0 0 0 26-79 463 463 0 0 0 5-61zm-45 2973-9-45a242 242 0 0 0-37-67 257 257 0 0 0-89-65 346 346 0 0 0-90-23q-1 0 6-7 7-6 10-11 3-4 1-10l-9-22q0-4-6 3a480 480 0 0 1-251 114 730 730 0 0 1-163 18l-9 5a283 283 0 0 1-74 40l6 12a608 608 0 0 0 83 111 584 584 0 0 0 318 169 716 716 0 0 0 99 6 356 356 0 0 0 74-13 268 268 0 0 0 48-23 283 283 0 0 0 45-39 216 216 0 0 0 35-58 256 256 0 0 0 13-57zm-40 41-6 31a184 184 0 0 1-47 72 164 164 0 0 1-69 36 277 277 0 0 1-107 7 705 705 0 0 1-88-16 676 676 0 0 1-120-48 654 654 0 0 1-91-65 693 693 0 0 1-97-111l11-6 19-11c8-6 8-6 27-7l94-8a934 934 0 0 0 165-44l65-27a146 146 0 0 1 45-3l48 6a266 266 0 0 1 75 31 225 225 0 0 1 33 29l21 29a186 186 0 0 1 21 55 220 220 0 0 1 1 50m-68-2801a751 751 0 0 0-15-94 886 886 0 0 0-32-95 463 463 0 0 0-52-87 288 288 0 0 0-38-36l-19-13q-7-5-15-7c-6-2-9-2-20-2s-13 0-25 4a199 199 0 0 0-77 49 208 208 0 0 0-40 63 203 203 0 0 0-11 43 240 240 0 0 0 2 62 383 383 0 0 0 32 100 1118 1118 0 0 0 52 105l62 116a1162 1162 0 0 1 43 99l13 49 12-12 56-73a536 536 0 0 0 54-112 584 584 0 0 0 18-82 661 661 0 0 0 0-77m-58 2275a511 511 0 0 0-39-162 1208 1208 0 0 0-50-119l-20-63-10 8-53 41a701 701 0 0 0-67 64 323 323 0 0 0-66 131 537 537 0 0 0-14 79l-18 118-23 102a593 593 0 0 1-38 86 334 334 0 0 1-31 44l16-1a788 788 0 0 0 171-34 889 889 0 0 0 89-38 455 455 0 0 0 63-42l39-39a260 260 0 0 0 35-58 246 246 0 0 0 16-69zM1677 888a503 503 0 0 0-17-78 602 602 0 0 0-51-117l-92-176-37-90a532 532 0 0 1-15-69l-12 7a723 723 0 0 0-61 49 375 375 0 0 0-100 186l-9 50v33a365 365 0 0 0 14 69 323 323 0 0 0 44 84 691 691 0 0 0 141 139l88 81a556 556 0 0 1 52 66l4 5 8-16a602 602 0 0 0 31-86 558 558 0 0 0 13-101zm-63 348-6-44a211 211 0 0 0-71-114 1433 1433 0 0 0-112-101l-55-51a926 926 0 0 1-66-75 423 423 0 0 1-38-66l-14 25a622 622 0 0 0-29 71 442 442 0 0 0-23 128 530 530 0 0 0 9 115 368 368 0 0 0 26 76l27 40a348 348 0 0 0 43 44 369 369 0 0 0 74 46 975 975 0 0 0 183 67l45 17 2-5a658 658 0 0 0 6-82zm-21 223-10-9-32-16-45-15-100-35a769 769 0 0 1-100-51 412 412 0 0 1-52-45v10a476 476 0 0 0 36 148 588 588 0 0 0 181 239q5 4 6 1l9-12a723 723 0 0 0 56-87 1086 1086 0 0 0 51-106l4-16q0-2-4-6m-123 1112a906 906 0 0 0-115 30 768 768 0 0 0-84 38l-43 30a401 401 0 0 0-83 96 973 973 0 0 0-46 90 1668 1668 0 0 1-57 105l-36 52a457 457 0 0 1-72 68 418 418 0 0 1-77 40l3 2 83 26 83 12a535 535 0 0 0 192-25 394 394 0 0 0 70-36l34-30 39-54a347 347 0 0 0 33-78 613 613 0 0 0 29-154l14-96a624 624 0 0 1 34-108l3-8zm-31-862a1023 1023 0 0 1-84-82 833 833 0 0 1-60-84 725 725 0 0 1-54-118 950 950 0 0 1-23-97l-3-68c0-15 0-15-6-25l-22-45a421 421 0 0 1-26-159 735 735 0 0 1 5-77 619 619 0 0 1 26-105l26-58-13 5a358 358 0 0 1-121 24c-4 1-4 1-5 12a643 643 0 0 1-11 73l-6 21c-3 9-3 9 3 24l13 40a348 348 0 0 1 3 138 489 489 0 0 1-73 192l-13 17c-5 7-5 8-6 15l-3 41a446 446 0 0 1-61 175 997 997 0 0 1-119 171l15 53 1 12q0 4 3 6l15 13a439 439 0 0 1 106 124 745 745 0 0 1 70 162 663 663 0 0 1 19 119 293 293 0 0 1-4 69c-3 11-3 11 4 25a489 489 0 0 1 25 73 532 532 0 0 1 10 129l-12 100-7 34c-1 1 2 1 17 2a754 754 0 0 1 92 10l-2-21-4-39c-2-14-2-28-2-65a818 818 0 0 1 32-233 740 740 0 0 1 58-134l14-21c5-7 5-7 6-23a400 400 0 0 1 24-122 803 803 0 0 1 162-280l6-8zm-38-1383a1075 1075 0 0 0-196-75 844 844 0 0 0-297-20l-52 10 6 10 39 61a659 659 0 0 1 54 130l9 50c1 7 1 7 10 17a350 350 0 0 1 88 169 878 878 0 0 1 17 101c1 3 1 3 9 2a626 626 0 0 0 83-14l48-18 17-10 10-8c2-3 3-4 1-12l-2-38-18 15q-18 15-25 18a675 675 0 0 1-87 24q-2-1-2-9a407 407 0 0 0-31-119l-7-18 17-23 67-73 68-63a672 672 0 0 1 77-51 395 395 0 0 1 67-25q9-2 19-1c10 0 10 0 17-6l15-13zm-95 11a390 390 0 0 0-77 45 726 726 0 0 0-122 112l-53 56-8-13a296 296 0 0 0-32-44c-10-10-10-10-12-21a751 751 0 0 0-26-97 558 558 0 0 0-53-104q0-2 3-2l14-2a943 943 0 0 1 217 15 794 794 0 0 1 159 50zm-173 2369-38-5a641 641 0 0 0-163 12 392 392 0 0 0-120 60l-119 90-67 44a572 572 0 0 1-108 44 452 452 0 0 1-63 10l14 14 51 41a608 608 0 0 0 93 50 472 472 0 0 0 130 28 278 278 0 0 0 159-40 376 376 0 0 0 84-81l39-60c6-9 26-48 45-88l57-105 8-13zm-88-1677a380 380 0 0 0-17-67 287 287 0 0 0-35-57 272 272 0 0 0-61-53 450 450 0 0 0-139-62l-128-38a792 792 0 0 1-91-36l2 18a2301 2301 0 0 0 30 135l17 44a281 281 0 0 0 97 109l68 49a1645 1645 0 0 1 89 74 575 575 0 0 1 73 91 419 419 0 0 1 29 57l7-10a536 536 0 0 0 47-113 740 740 0 0 0 13-77 434 434 0 0 0-1-64m-7-273a674 674 0 0 0-21-95 525 525 0 0 0-39-86l-32-40a310 310 0 0 0-42-35 392 392 0 0 0-95-42 743 743 0 0 0-142-22l-123-9-117-13-34-7 7 13a1366 1366 0 0 1 57 107l38 64 36 45a272 272 0 0 0 94 60 604 604 0 0 0 93 31l120 37a1036 1036 0 0 1 88 38 532 532 0 0 1 75 55l32 31 2-11a482 482 0 0 0 3-121m-7 1697a560 560 0 0 0-16-76 280 280 0 0 0-32-68l2-3 4-8a101 101 0 0 0 7-35 294 294 0 0 0-6-85 808 808 0 0 0-20-86 688 688 0 0 0-35-84 718 718 0 0 0-52-85l-40-46a468 468 0 0 0-49-42l-15-9 1-6q3-4 3-15a92 92 0 0 0-7-33 349 349 0 0 0-34-78 909 909 0 0 0-141-194 386 386 0 0 0-49-40l2-5q2-4 1-12 0-6-8-29a724 724 0 0 1-18-74 374 374 0 0 1-1-85 336 336 0 0 1 29-96l26-81a483 483 0 0 0 6-121l-2 4-17 44a1545 1545 0 0 0-47 133l-10 23-2-7a660 660 0 0 0-38-97l-36-94a687 687 0 0 1-21-81 524 524 0 0 1-4-65 338 338 0 0 1 6-53l14-39a212 212 0 0 1 27-41 196 196 0 0 1 33-29l-20-28c-3-5-3-5-11 1l-31 28-22 30q-6 10-8 10l-24 7-33 17a471 471 0 0 0-83 63 555 555 0 0 0-165 296 228 228 0 0 0 2 68c2 13 2 13-5 20l-12 19a421 421 0 0 0-40 128 335 335 0 0 0-2 81 441 441 0 0 0 190 327q2-1-1 6l-2 15 2 16 6 19a710 710 0 0 0 128 206 1320 1320 0 0 0 70 79l47 40-1 5a33 33 0 0 0 0 19l20 56a745 745 0 0 1 29 105l23 86a594 594 0 0 0 30 68 481 481 0 0 0 91 110 409 409 0 0 0 101 63l136 62q3 1 13-2a510 510 0 0 1 90-15l5-19 16-95 2-53zm-40 78a677 677 0 0 1-14 92l-3 1a348 348 0 0 0-52 10c-12 3-12 3-26-5a768 768 0 0 0-77-35l-68-34-49-33a433 433 0 0 1-55-54 470 470 0 0 1-40-62 373 373 0 0 1-32-91l-17-70-39-124 15 6a720 720 0 0 0 148 53l129 43a621 621 0 0 1 67 34 305 305 0 0 1 67 63 237 237 0 0 1 43 111 447 447 0 0 1 3 95m-35-265-1 6-14-11a456 456 0 0 0-72-50 535 535 0 0 0-102-42 2510 2510 0 0 0-144-44 961 961 0 0 1-85-35 444 444 0 0 1-60-38 407 407 0 0 1-45-44 1367 1367 0 0 1-89-113 1323 1323 0 0 1-56-94 468 468 0 0 1-23-60l1-2 38 14a645 645 0 0 0 137 32l119 19a1805 1805 0 0 1 132 29l57 23a285 285 0 0 1 43 28 406 406 0 0 1 93 114 633 633 0 0 1 55 134 679 679 0 0 1 15 91zm-214-459-4-1a482 482 0 0 0-102-29 1776 1776 0 0 0-154-26l-105-19a736 736 0 0 1-109-35l-44-27a357 357 0 0 1-133-210 469 469 0 0 1-13-98 288 288 0 0 1 11-87 375 375 0 0 1 25-68q0-4 4 5l10 20a330 330 0 0 0 93 100 629 629 0 0 0 167 94l123 56 40 27a368 368 0 0 1 69 72l60 85 41 76 18 47 3 13zm-231-373-7-2-122-52a1106 1106 0 0 1-108-59 642 642 0 0 1-75-61 312 312 0 0 1-34-44 251 251 0 0 1-25-57q-3-8-4-18c-2-7-2-15-2-32a194 194 0 0 1 6-56 404 404 0 0 1 45-112 790 790 0 0 1 75-101 663 663 0 0 1 98-82l23-12-2 11-5 24c-2 12-2 18-2 43a291 291 0 0 0 7 76 658 658 0 0 0 52 159l38 95a411 411 0 0 1 17 72v39a390 390 0 0 0 25 168zm437-100-10-37a317 317 0 0 0-81-116 536 536 0 0 0-86-74l-82-61a700 700 0 0 1-57-49l-1 10-3 43a371 371 0 0 1-16 70 966 966 0 0 1-32 93 291 291 0 0 0-12 47l-2 29a227 227 0 0 0 12 77 375 375 0 0 0 36 78 320 320 0 0 0 32 40 846 846 0 0 1 79 105 1326 1326 0 0 1 57 97c6 11 6 11 8 8l14-16a1130 1130 0 0 0 80-115 862 862 0 0 0 45-99 547 547 0 0 0 21-91zm-32-891a364 364 0 0 0-37-93 802 802 0 0 0-53-82 936 936 0 0 0-85-94 937 937 0 0 0-70-56 808 808 0 0 0-91-49 544 544 0 0 0-81-23l-74-7a421 421 0 0 0-113 14l-32 15-27 24-21 31a155 155 0 0 0-12 35c-2 7-2 13-2 28 0 16 0 20 2 29l13 36a206 206 0 0 0 55 68 302 302 0 0 0 42 27l44 17a602 602 0 0 0 108 19 1703 1703 0 0 0 128 11l136 13a830 830 0 0 1 117 29 390 390 0 0 1 56 28l1-2zm-73 2248-114-50a254 254 0 0 0-110-11 655 655 0 0 0-94 17l-107 23-63 8a531 531 0 0 1-143-14 333 333 0 0 1-74-32l2 13a482 482 0 0 0 25 78 323 323 0 0 0 50 78 469 469 0 0 0 86 77 354 354 0 0 0 64 32 233 233 0 0 0 125 7 319 319 0 0 0 95-33 550 550 0 0 0 98-62l32-25 28-22 85-60 29-17zm-22 455c-25-13-25-13-44-12a375 375 0 0 1-119-14 527 527 0 0 1-171-80l-51-43-5 9-23 44a302 302 0 0 1-35 41 347 347 0 0 1-47 37c-7 5-27 16-45 24l-59 35a173 173 0 0 0-26 29l-19 35-6 21c-3 10-3 13-3 32a132 132 0 0 0 8 54l17 35a182 182 0 0 0 33 39 202 202 0 0 0 54 31 246 246 0 0 0 103 12 609 609 0 0 0 98-15 666 666 0 0 0 105-41 895 895 0 0 0 88-55 800 800 0 0 0 99-96 937 937 0 0 0 73-109zm-42 48a791 791 0 0 1-67 83 503 503 0 0 1-197 130l-75 22a433 433 0 0 1-109 5l-31-7a194 194 0 0 1-38-19 152 152 0 0 1-31-29 126 126 0 0 1-13-123l9-16a138 138 0 0 1 25-26l18-12 33-16a520 520 0 0 0 83-53 363 363 0 0 0 57-63c6-8 6-8 11-5l15 11a640 640 0 0 0 130 68 643 643 0 0 0 135 29l56 3zm-134-611a335 335 0 0 1-66-71l-42-50a298 298 0 0 0-130-72l-118-36a768 768 0 0 1-81-34 533 533 0 0 1-71-45 483 483 0 0 1-52-53l-7-10-5 9a319 319 0 0 0-23 199 496 496 0 0 0 26 84l24 41a261 261 0 0 0 55 52 357 357 0 0 0 67 30 299 299 0 0 0 88 13 443 443 0 0 0 103-9 1164 1164 0 0 0 131-28l93-13 14-1zm-146-212-15-85-19-74a451 451 0 0 0-126-194 1697 1697 0 0 1-95-134l-30-55-12 9a412 412 0 0 0-94 120 372 372 0 0 0-21 57l-6 28c-2 12-2 18-2 40a188 188 0 0 0 14 78l15 28 30 35a322 322 0 0 0 102 68 649 649 0 0 0 124 44l93 31 44 19z"/></g><defs><clipPath id="a"><path fill="#fff" d="M0 3515V0h2147v3515z"/></clipPath></defs></svg>