<svg xmlns="http://www.w3.org/2000/svg" width="1063" height="1063" viewBox="0 0 1063 1063"><rect width="1063" height="1063" rx="191" fill="#000"/><path d="m796 396-5 32-2 8q-3 6-1 7l3 17a134 134 0 0 1-3 43l-13 36-13 22 2 2a116 116 0 0 1 31 82l-4 31-10 27-1 5-1 26a121 121 0 0 1-17 41l-14 17-20 15-18 9-6 9q-3 2 0 5l3 9 2 2 16 6 15 11 12 17a59 59 0 0 1-7 66l-12 10-21 9a81 81 0 0 1-28 3l-32-6-31-13-23-17a203 203 0 0 1-28-31l-8-13h-3l-18 3h-28l-28-6-10 15-22 27-23 19-30 15-30 7-21 1-16-4-14-7-8-8-8-13-3-11a50 50 0 0 1 8-36l7-8 9-6 24-14 9-10 7-12 2-7-2-1-15-4-22-15-21-23a109 109 0 0 1-13-27l-3-19-11-16-8-20-2-24 1-16 7-24 2-3v-5l-2-19a75 75 0 0 1 9-37 108 108 0 0 1 17-24l13-11-1-3-2-9-2-2a98 98 0 0 1-28-34l-10-21-5-23-1-13a94 94 0 0 1 6-35l7-17 1-5a90 90 0 0 1 15-58l22-29a163 163 0 0 1 31-24l9-4 4-4 8-9 7-7-2-4-13-24-11-18q1-2-5-3l-12-7a74 74 0 0 1-18-22l-4-12-1-9 2-13 4-9 6-8 13-10 16-4 18-1a105 105 0 0 1 44 8 127 127 0 0 1 39 24l18 19 6-1 39-4a225 225 0 0 1 112 30l1-10 5-12 11-14 8-6 15-7 7-1 2-3 7-10 11-7 17-5h8l12 3 9 4 8 7 7 9 9 18 4 20v24l-7 24a100 100 0 0 1-32 39l-1 3-4 15 1 2 10 14q1 4 4 4l22 16 16 20 11 24a149 149 0 0 1 7 50Zm-9-12-5-28-12-29-13-16a98 98 0 0 0-23-18l-18-7-3 2-4 7 4 1 14 5 17 11 14 15 11 19a125 125 0 0 1 2 84l-2-2-16-17a213 213 0 0 0-56-33l-15-10-4 9 2 2 16 9 38 21 17 14 16 20 5 17a103 103 0 0 1-3 39 162 162 0 0 1-26 56l-1-1-7-24a144 144 0 0 0-19-33l-28-40-10-23-3-12-2 26 2 4 10 18 25 35 16 28 5 17 1 13-2 13a80 80 0 0 1-13 26l-28 35-2 3-1-3-10-25-18-35-10-28-2-15 1-17 3-13-2 3-9 14-1 2-1 3-8 8-25 37a216 216 0 0 0-16 45l-1 9-1 8-2 2a112 112 0 0 0-15 32 214 214 0 0 0-9 55l2 28 2-2 5-4 2-2-1-18a148 148 0 0 1 7-48l12-30 1 1 4 12 15 25 28 35 4-4 3-3-2-3-26-32-14-26-5-15a76 76 0 0 1 5-33l14-33 21-30v3l7 24 15 32 19 43a64 64 0 0 1 2 23l-3 15 2-2 3-8 8-17 19-25 26-37 5-12 2-12 2-1 2-1 10-12 15-28 9-31 2-24a84 84 0 0 0-4-27q-3-2-1-3l1-2 4-10 4-26zm-2 254a155 155 0 0 0-9-38 119 119 0 0 0-17-28l-3-3-3 3-4 6-7 20a204 204 0 0 1-24 35l1 1 45 39 12 19 1-4a134 134 0 0 0 8-34zm-14 73-5-16a81 81 0 0 0-23-31l-31-24-3 4-15 23-3 9-1 11 5 19 15 35 7 36v18l-2 8 3-1 15-10 16-16 10-15a109 109 0 0 0 12-42zm-11-546-5-22-6-13-3-5-9-9-8-4-5-2h-8l-12 1-8 4-7 7-4 5 3 1 13 10 12 16 14 36 5 36v8l14-17 10-18 4-21zm-11 732-3-11-9-17a64 64 0 0 0-22-16l-22-6 2-1 2-3v-2l-2-6-1 1a115 115 0 0 1-52 26 214 214 0 0 1-52 8l-19 9 2 3a146 146 0 0 0 32 39l28 18a168 168 0 0 0 39 12l24 2 18-3 16-9 7-6 9-15 3-14zm-10 10-2 7a45 45 0 0 1-11 18 41 41 0 0 1-17 9 68 68 0 0 1-27 2l-29-7a139 139 0 0 1-44-25l-24-27 2-2 5-2q1-2 7-2l41-6a206 206 0 0 0 43-14h14l10 3 13 6 8 7 6 7 5 14zm-17-690-6-32-12-27-10-13-10-8-4-2h-5l-6 1a49 49 0 0 0-19 12l-10 15-3 11 1 15 8 25 21 41 19 45 2 5 2-3 18-24 12-29 2-13zm-14 560a127 127 0 0 0-13-47l-16-35-24 19-13 17-9 22-4 19-8 47-8 22-11 17h4a196 196 0 0 0 51-12l23-12 15-14 9-14 4-17zm-28-460-4-19-13-29-29-58-6-24-3 2-15 12a93 93 0 0 0-25 45l-2 13v8l3 17a79 79 0 0 0 20 31l32 29 29 31 1 1 2-4 7-21 4-25zm-15 86-2-11-6-14-11-14-36-32-26-30-5-10-3 6-10 26-4 31 4 27 8 17a68 68 0 0 0 27 24l21 9 37 14 4 1v-1l2-31zm-5 55-3-2-8-4-25-9-35-16-13-11v2a115 115 0 0 0 9 37 144 144 0 0 0 44 59h2l2-3a175 175 0 0 0 20-32l8-20zm-31 274-35 10-19 10-17 16a124 124 0 0 0-20 34l-23 38-18 17-19 10h1l27 8 35 1 26-5 17-9 9-8 9-13 8-19a149 149 0 0 0 8-38l7-38 5-14zm-8-212-25-27a174 174 0 0 1-20-35 120 120 0 0 1-9-32l-1-17-1-6-6-11a104 104 0 0 1-6-39l2-26 9-26 3-7-3 1a88 88 0 0 1-30 6l-1 2-4 24v6l4 9a86 86 0 0 1 0 34 124 124 0 0 1-15 43l-6 9-1 4-1 10a109 109 0 0 1-15 43 247 247 0 0 1-29 42l4 17 17 17a171 171 0 0 1 21 32l12 37 2 27-1 7q-2 3 1 6l6 19a130 130 0 0 1-2 64l4 1 23 2-1-5-1-42 8-41a179 179 0 0 1 17-38q2-1 2-6a98 98 0 0 1 6-30 195 195 0 0 1 41-71zm-9-341a267 267 0 0 0-64-22 293 293 0 0 0-50-2l-20 3 1 3 19 32 6 21 1 6 2 4a86 86 0 0 1 22 42l4 25h2l27-6 10-4 2-2v-12l-5 3-6 5-5 2-16 3-1-2a101 101 0 0 0-9-34l4-5 33-34 19-12 17-6 4-1 5-1 3-3zm-23 3-19 11a182 182 0 0 0-39 37l-4 4-2-3-8-11q-4-2-3-5l-6-24-13-26h4a234 234 0 0 1 68 7l24 9zm-43 583-9-1a160 160 0 0 0-40 3 96 96 0 0 0-30 14l-41 31-19 9-19 6-8 1h-1l4 3 19 15 23 10 25 5a68 68 0 0 0 39-10 92 92 0 0 0 21-20 237 237 0 0 0 31-57l6-9zm-22-413-4-16-8-15-15-13a111 111 0 0 0-35-15l-45-14-9-4 1 4 12 45a69 69 0 0 0 23 26l33 25 21 23 10 19 2-2 12-28 3-19zm-1-67-5-24-10-21-8-10-10-8-24-10a183 183 0 0 0-45-7l-49-4-8-2 2 3 18 35 14 18a67 67 0 0 0 23 15l23 8 51 18 19 14 7 7 1-2zm-2 418-4-19-8-17 1-1 1-2 1-8-1-21-9-33a174 174 0 0 0-21-35l-18-16-4-3v-1l1-4-2-8-8-19a225 225 0 0 0-41-53l-6-5 1-1v-3l-2-7-5-24a74 74 0 0 1 4-30l10-29 1-30v1l-16 44-2 6-1-2-9-24-14-43-2-16 2-13 3-10 7-10 8-7-5-7h-2l-8 7-6 8-2 2-9 3-18 13a154 154 0 0 0-32 36l-11 22-5 20 1 17-1 5-3 5a103 103 0 0 0-10 31l-1 20a108 108 0 0 0 47 81v1l-1 4 1 4 1 4a177 177 0 0 0 37 58l23 26v2l5 14 8 26 10 32 16 24a97 97 0 0 0 34 25l37 14 22-3 1-5 4-29zm-10 19-3 23h-1l-13 2q-3 2-6-1l-19-9-29-16-14-13-10-16-7-22-12-43-2-5 3 2a175 175 0 0 0 37 13l44 16 13 9 11 13a62 62 0 0 1 7 23zm-9-65v1l-3-2-18-13-25-10-49-16-18-10-9-7-13-15a309 309 0 0 1-32-50l-3-8 10 3 34 8 53 10 22 8 17 12a107 107 0 0 1 28 48l6 30zm-52-113-1-1-25-7-56-9-30-8-16-9a89 89 0 0 1-19-21l-10-19-5-20-2-16 3-21 6-17 1 1 3 5a82 82 0 0 0 23 25 156 156 0 0 0 41 23l40 20 17 18 25 40 5 14zm-57-92-2-1-46-21-23-15-11-12-6-10-5-13v-8l1-14a99 99 0 0 1 12-28l18-24a163 163 0 0 1 28-23l2-1-1 3-1 6v11l1 18a161 161 0 0 0 17 48l10 33v9a96 96 0 0 0 6 42Zm108-25-3-9a79 79 0 0 0-20-28l-21-19-32-25-2-2v3l-1 10-4 17-10 29-1 6-1 7 3 19 9 19 8 10a211 211 0 0 1 26 36l8 14 2 2 3-4 24-38 11-29 1-12zm-8-219-10-23a196 196 0 0 0-26-36 169 169 0 0 0-39-30l-28-9-28-2-18 4-8 3-7 6-5 8-3 9v14l3 8a51 51 0 0 0 14 17l10 7 11 4 27 5 56 5 31 6 21 8zm-18 553-40-14-15-1-34 7-32 5a131 131 0 0 1-35-3l-18-8v3l7 19 12 19 21 19 16 8a57 57 0 0 0 25 3l23-6 23-13 15-12 7-5 28-19zm-6 112c-6-3-6-3-11-3a92 92 0 0 1-29-3 128 128 0 0 1-42-20l-13-10-1 2-6 11-8 10-12 9-21 11-8 7a40 40 0 0 0-9 17l-1 8 2 13 5 9 8 10 13 7a60 60 0 0 0 25 3l31-5a133 133 0 0 0 60-39 195 195 0 0 0 23-33zm-10 12-23 27-22 16-26 12-25 5-19-1-8-3-4-3-8-7a31 31 0 0 1-5-25l4-10 6-6 5-3 17-9 11-8 14-15 3-2 23 15a156 156 0 0 0 39 11l21 2zm-33-150-16-18-11-12a73 73 0 0 0-32-18l-40-13-21-12-15-12-5-7-1 3a78 78 0 0 0-6 49l7 20 6 10 13 13 17 7 21 4 26-2 39-9 19-2zm-36-52-8-40a112 112 0 0 0-32-47l-30-47-3 2a101 101 0 0 0-23 30l-6 14-1 7-1 10a46 46 0 0 0 4 19l4 7 7 8a80 80 0 0 0 25 17l31 11z" fill="#fff" stroke="#fff" stroke-width="16"/></svg>